<?xml version="1.0" standalone="no"?>
<!DOCTYPE svg PUBLIC "-//W3C//DTD SVG 20010904//EN"
 "http://www.w3.org/TR/2001/REC-SVG-20010904/DTD/svg10.dtd">
<svg version="1.0" xmlns="http://www.w3.org/2000/svg"
 width="300.000000pt" height="221.000000pt" viewBox="0 0 300.000000 221.000000"
 preserveAspectRatio="xMidYMid meet">
<metadata>
Created by potrace 1.10, written by Peter Selinger 2001-2011
</metadata>
<g transform="translate(0.000000,221.000000) scale(0.100000,-0.100000)"
fill="#000000" stroke="none">
<path d="M2530 2166 c-74 -49 -144 -114 -184 -169 -27 -36 -100 -97 -117 -97
-10 0 13 56 34 80 24 28 34 51 41 95 7 40 7 40 -12 20 -11 -11 -74 -102 -141
-202 -67 -100 -126 -185 -131 -188 -6 -4 -10 11 -11 37 0 39 -1 41 -11 18 -18
-44 -103 -211 -167 -330 -64 -117 -89 -155 -76 -113 6 23 5 23 -67 18 -81 -6
-162 -30 -194 -57 -19 -17 -22 -17 -75 2 -29 12 -80 22 -111 23 -32 2 -60 6
-63 9 -3 3 -25 2 -48 -3 -23 -4 -46 -8 -51 -9 -4 0 -6 -7 -2 -15 11 -29 -13
-14 -59 37 -25 28 -55 68 -65 87 -30 57 -23 10 10 -75 31 -76 74 -148 104
-173 9 -7 13 -17 10 -22 -3 -5 0 -8 8 -7 9 2 12 -5 10 -22 -2 -14 -6 -49 -9
-78 l-5 -52 44 -20 c24 -11 35 -20 24 -20 -29 0 -85 39 -92 64 -3 13 0 42 6
66 6 23 9 44 6 47 -5 6 -26 -64 -26 -90 0 -68 74 -112 170 -101 56 6 59 8 81
50 15 28 26 39 31 31 5 -7 8 -2 7 13 0 26 -14 35 -152 95 -96 42 -149 92 -177
170 -10 28 -8 27 34 -16 30 -31 77 -62 148 -96 132 -65 158 -89 158 -144 0
-54 -58 -151 -105 -173 -44 -21 -114 -20 -141 2 -34 28 -66 81 -60 99 4 8 -3
31 -14 50 -22 37 -25 47 -11 39 5 -3 18 16 29 43 l20 48 -49 74 c-27 40 -49
78 -49 83 0 6 -10 31 -21 56 -12 25 -23 59 -25 75 -2 17 -5 39 -6 49 -6 41 21
24 41 -27 12 -30 35 -69 52 -88 l29 -34 -11 30 c-16 45 -69 147 -88 170 -37
45 -79 112 -92 150 -11 34 -14 37 -17 16 -3 -20 -15 -7 -70 75 -99 146 -160
230 -225 306 -51 59 -62 68 -92 68 -19 0 -37 -4 -40 -10 -3 -6 -1 -10 4 -10 6
0 11 -9 11 -20 0 -11 4 -20 9 -20 5 0 11 -9 14 -21 5 -18 3 -18 -11 -7 -9 7
-21 18 -27 24 -30 31 -104 82 -127 88 -36 8 -110 -20 -88 -34 8 -5 25 -10 36
-10 17 0 20 -5 16 -25 -4 -22 -1 -25 22 -25 19 0 26 -5 26 -20 0 -11 7 -23 15
-26 8 -4 15 -10 15 -14 0 -5 -35 4 -77 19 -61 21 -91 26 -136 23 -31 -2 -57
-7 -57 -12 0 -13 54 -44 73 -42 13 0 17 -4 13 -14 -3 -8 0 -14 7 -14 7 0 34
-14 61 -31 63 -40 48 -51 -60 -42 -83 6 -142 -5 -164 -32 -9 -10 2 -17 54 -35
36 -12 71 -18 77 -14 6 3 14 2 18 -3 3 -6 20 -17 36 -26 19 -10 24 -16 13 -17
-9 0 -29 -5 -45 -12 -15 -6 -38 -13 -50 -14 -13 -2 -50 -13 -83 -25 -47 -17
-58 -25 -49 -35 14 -17 61 -27 128 -28 34 -1 56 -6 58 -13 3 -7 -2 -13 -11
-13 -23 0 -146 -60 -146 -70 0 -5 13 -16 29 -24 22 -12 31 -12 40 -3 8 8 14 9
19 1 4 -5 23 -15 42 -21 l35 -10 -28 -11 c-63 -26 -57 -93 10 -109 l38 -9 3
-60 3 -60 34 4 35 4 0 -45 c0 -46 13 -69 23 -43 4 9 14 12 26 9 16 -4 21 -13
21 -40 0 -30 3 -34 23 -31 19 3 22 -1 19 -24 -3 -20 1 -28 12 -28 12 0 16 -11
16 -44 0 -25 4 -47 9 -50 4 -3 11 -25 14 -48 3 -23 12 -47 20 -53 7 -5 19 -21
26 -34 10 -19 18 -22 42 -17 24 5 29 2 29 -14 0 -11 5 -20 10 -20 6 0 10 -7
10 -15 0 -32 57 -88 82 -82 13 4 36 -5 61 -21 22 -15 48 -32 58 -38 11 -6 27
-18 37 -27 11 -11 22 -13 32 -7 9 5 17 5 20 0 3 -5 23 -5 47 2 39 9 45 8 74
-16 17 -14 36 -23 41 -20 7 4 8 2 4 -4 -4 -7 -2 -12 4 -12 6 0 8 -10 4 -26 -8
-29 31 -77 81 -100 17 -8 42 -23 56 -35 19 -15 33 -18 53 -13 20 5 24 9 14 15
-10 7 -9 9 5 9 28 0 19 -28 -11 -35 -30 -6 -76 6 -87 25 -3 5 -21 17 -38 25
-18 8 -40 20 -49 27 -14 10 -21 8 -44 -12 -26 -25 -46 -58 -58 -96 -11 -38 72
-56 99 -22 6 7 19 20 30 28 11 8 3 -5 -18 -29 -20 -25 -37 -54 -37 -65 0 -12
-3 -31 -6 -43 -6 -20 -3 -21 43 -19 66 3 90 18 120 82 14 30 28 52 31 50 2 -3
-10 -35 -28 -71 -21 -43 -33 -83 -35 -116 -2 -46 -1 -49 19 -43 42 12 71 42
90 93 10 28 21 49 24 47 3 -3 -3 -26 -12 -50 -17 -46 -14 -142 5 -131 4 3 12
-2 17 -11 8 -14 12 -14 43 4 26 14 35 27 40 55 3 21 9 41 13 45 4 4 5 -14 1
-41 -5 -32 -3 -52 5 -62 17 -21 27 -19 55 11 18 20 25 40 27 73 1 42 2 40 7
-17 3 -34 11 -63 16 -63 6 0 15 -5 21 -10 15 -13 67 48 61 70 -3 9 -10 31 -15
49 -16 49 -7 39 27 -33 28 -58 51 -83 51 -55 0 6 7 10 16 8 9 -2 25 13 40 38
l24 41 -30 38 c-44 56 -36 57 13 3 38 -42 48 -48 83 -48 42 0 41 -3 35 92 0
10 -18 29 -38 43 -46 30 -32 33 17 3 19 -11 52 -22 72 -22 36 -1 37 0 35 33
-2 28 -13 45 -59 88 -32 29 -62 53 -68 53 -13 0 -49 -20 -75 -41 -30 -25 -59
-31 -89 -19 -25 9 -28 30 -5 30 6 0 7 -5 4 -10 -4 -6 6 -10 24 -10 29 0 73 23
134 70 22 18 42 22 104 23 67 0 84 4 127 29 27 16 56 37 65 48 20 22 119 90
135 91 6 1 21 0 33 -1 26 -2 93 46 93 66 0 7 11 24 25 38 14 14 25 36 25 49 0
50 12 88 27 83 15 -6 33 30 33 67 0 12 9 28 20 35 11 7 20 19 20 27 0 8 6 24
13 35 10 17 9 26 -5 50 l-17 30 27 1 c15 1 34 1 44 0 24 -3 68 60 68 99 0 29
2 32 25 26 20 -5 27 -1 40 23 8 17 15 42 15 57 0 23 3 25 25 20 21 -5 28 -1
45 26 26 43 25 56 -7 90 l-27 28 25 1 c13 1 31 3 39 4 8 1 25 3 38 4 32 2 27
19 -15 59 -36 33 -36 35 -17 49 10 8 31 17 47 20 15 3 27 12 27 19 0 8 6 11
16 7 15 -6 64 15 64 27 0 6 -38 16 -202 52 -27 5 -48 14 -48 18 0 11 89 29
155 32 34 2 56 10 72 24 45 42 19 59 -75 50 -232 -22 -282 -16 -191 24 29 12
74 29 100 36 30 9 48 21 52 33 4 15 11 18 28 14 19 -4 21 -3 13 6 -33 35 -109
31 -257 -15 -43 -13 -82 -24 -88 -24 -22 0 -5 22 41 52 28 18 50 39 50 46 0 7
5 10 10 7 6 -3 10 -1 10 4 0 6 6 11 14 11 20 0 77 50 70 61 -15 25 -118 -16
-286 -115 -49 -28 -64 -24 -28 9 11 10 20 24 20 32 0 7 10 17 23 22 30 12 49
35 42 52 -3 8 4 18 17 24 17 8 77 85 66 85 -2 0 -32 -20 -68 -44z m-565 -678
c4 4 0 -5 -9 -20 -10 -15 -16 -35 -15 -45 4 -35 -98 -237 -134 -264 -4 -3 1
-34 12 -70 18 -60 24 -105 13 -94 -5 5 -46 -75 -44 -86 1 -4 -9 -18 -21 -31
-30 -32 -95 -43 -141 -24 -35 14 -106 108 -106 139 0 33 20 26 45 -16 24 -42
28 -45 81 -51 65 -7 134 17 155 55 14 27 14 92 0 117 -7 12 -8 -2 -4 -40 6
-63 -1 -79 -49 -104 -19 -10 -41 -13 -65 -8 l-36 7 39 13 c50 17 55 17 24 -2
l-25 -15 30 6 c48 9 68 41 60 95 -4 25 -10 51 -15 59 -5 10 5 27 30 54 44 45
92 131 120 213 23 66 26 105 5 57 -21 -50 -81 -124 -133 -165 -26 -21 -51 -38
-55 -38 -5 0 17 21 48 47 49 40 135 150 135 174 0 4 5 20 11 36 10 26 12 27
23 11 7 -10 17 -14 21 -10z m-126 -234 c-30 -59 -85 -106 -157 -135 -32 -12
-81 -36 -109 -52 -50 -27 -53 -28 -53 -9 0 29 45 63 164 122 58 28 108 56 112
61 3 5 10 6 16 3 7 -5 8 -2 3 5 -7 12 33 66 43 57 2 -3 -7 -26 -19 -52z m-649
-15 c17 -13 18 -17 5 -10 -33 17 -51 31 -40 31 6 0 21 -10 35 -21z m115 -71
c17 -15 -7 -8 -46 14 -22 12 -39 26 -39 31 0 8 62 -25 85 -45z m365 28 c0 -3
-5 -8 -12 -12 -7 -4 -8 -3 -4 4 7 12 16 16 16 8z m-30 -20 c0 -2 -19 -14 -42
-25 -92 -45 -114 -86 -97 -175 15 -81 54 -115 167 -147 23 -7 42 -16 42 -20 0
-19 -58 -44 -115 -49 -57 -6 -59 -6 -34 -19 23 -11 35 -10 98 15 85 33 132 70
168 131 29 50 36 116 20 203 -11 61 1 44 17 -23 33 -141 -41 -263 -196 -320
-78 -30 -106 -30 -140 0 -15 13 -18 12 -34 -18 -16 -32 -17 -33 -30 -14 -42
64 -40 63 -64 32 -13 -16 -30 -26 -43 -26 -22 2 -22 2 1 6 12 2 26 12 32 22 8
16 5 18 -39 13 -35 -3 -58 1 -89 17 -22 11 -43 24 -46 29 -3 5 18 14 47 22
113 28 156 75 165 176 l5 64 -44 40 c-52 48 -41 53 14 7 21 -18 44 -51 52 -72
14 -40 17 -38 29 17 8 34 37 62 96 93 44 24 60 29 60 21z m-583 -114 c-23
-145 33 -238 181 -302 74 -32 59 -35 -19 -5 -130 52 -205 182 -177 305 15 64
18 73 22 69 2 -2 -1 -33 -7 -67z m148 24 c-5 -19 -5 -19 5 -3 19 30 31 8 14
-25 -9 -17 -13 -39 -11 -50 4 -12 1 -18 -6 -15 -7 2 -11 19 -10 38 l1 34 -13
-40 -13 -40 -1 52 c-1 62 6 84 25 76 9 -3 12 -13 9 -27z m549 12 c8 -32 7 -78
-2 -78 -10 0 -34 79 -27 91 10 16 22 10 29 -13z m-36 -23 c15 -32 15 -72 2
-80 -6 -4 -10 8 -10 29 0 19 -4 38 -10 41 -12 7 -13 35 -2 35 5 0 14 -11 20
-25z m-406 -23 l48 -22 -17 -36 c-16 -32 -21 -35 -47 -30 -37 8 -66 33 -66 58
0 23 19 60 28 56 4 -2 28 -13 54 -26z m381 -6 c8 -24 5 -32 -14 -51 -13 -13
-36 -27 -51 -30 -23 -6 -29 -2 -43 26 -17 31 -17 33 6 50 13 10 32 19 41 19 9
0 20 5 23 11 11 16 28 5 38 -25z m-593 -79 c0 -16 -18 3 -23 25 -6 22 -5 22 8
4 8 -11 15 -24 15 -29z m647 26 c-4 -3 -7 0 -7 7 0 7 3 10 7 7 3 -4 3 -10 0
-14z m-507 -28 c19 -7 28 -14 20 -14 -8 0 -28 6 -45 14 -39 17 -21 18 25 0z
m511 -305 c10 -6 19 -15 19 -21 0 -6 9 -24 21 -40 11 -16 16 -29 12 -29 -5 0
-20 18 -33 40 -14 22 -30 40 -37 40 -15 0 -28 20 -13 20 6 0 20 -5 31 -10z
m-561 -4 c0 -3 -5 -8 -12 -12 -7 -4 -8 -3 -4 4 7 12 16 16 16 8z m143 -49 c31
-29 57 -61 57 -70 0 -19 -15 -23 -25 -7 -7 12 -46 14 -42 3 4 -13 -7 -16 -30
-9 -13 4 -23 15 -24 24 0 14 -2 15 -7 2 -4 -8 -18 -15 -32 -15 -27 0 -37 19
-39 73 -1 27 3 32 22 32 18 0 19 2 7 10 -11 7 -6 10 20 10 28 0 46 -10 93 -53z
m397 18 c4 -11 5 -34 3 -51 -4 -28 -9 -32 -38 -32 -17 0 -47 -8 -65 -17 l-33
-17 6 24 c4 12 7 29 7 37 0 7 6 11 14 8 8 -3 17 3 21 16 7 20 8 18 15 -13 8
-35 8 -35 8 10 0 25 1 48 1 52 2 17 54 2 61 -17z m-95 -1 c-48 -35 -59 -48
-47 -52 20 -6 14 -32 -7 -32 -11 0 -23 -5 -26 -10 -7 -11 -25 -4 -25 9 0 4 9
17 20 29 15 16 17 22 7 22 -23 0 -49 -36 -43 -58 8 -23 90 -102 106 -102 7 0
5 9 -4 22 -21 29 -20 44 2 52 9 3 23 9 30 12 6 3 12 1 12 -5 0 -6 -8 -12 -17
-12 -17 -1 -17 -2 0 -6 21 -6 22 -31 1 -61 -8 -12 -11 -22 -5 -22 23 0 43 14
57 41 9 18 22 29 35 29 20 0 20 -1 6 -22 -8 -13 -20 -22 -26 -21 -6 2 -8 -4
-5 -11 7 -19 -25 -35 -58 -29 -35 7 -134 100 -143 133 -7 31 22 62 77 79 21 7
40 17 43 22 4 5 12 9 18 9 7 0 3 -7 -8 -16z m-496 -36 c-5 -13 -21 -28 -35
-35 l-25 -11 28 33 c33 39 47 45 32 13z m266 -8 c4 -6 10 -8 15 -5 4 3 4 -13
-1 -36 -6 -27 -21 -50 -46 -72 -21 -18 -45 -39 -54 -48 -9 -9 -30 -19 -47 -22
-26 -5 -35 -1 -61 29 -36 40 -39 54 -11 54 11 0 20 -7 20 -15 0 -20 36 -55 55
-55 14 0 14 3 0 30 -20 39 -19 50 8 51 l22 2 -22 4 c-13 2 -23 9 -23 14 0 12
2 11 38 -4 30 -13 31 -14 17 -41 -18 -33 -18 -36 -6 -36 17 0 90 77 96 102 5
20 1 30 -19 46 -14 11 -26 23 -26 26 0 9 37 -11 45 -24z m-220 -20 c8 -36 -19
-86 -31 -56 -4 9 -4 20 0 23 3 3 1 12 -5 19 -7 9 -6 18 2 33 16 25 26 19 34
-19z m588 -9 c-7 -11 -8 -21 -3 -23 6 -2 6 -9 0 -18 -8 -13 -11 -13 -24 0 -13
13 -14 23 -5 54 10 36 12 37 27 22 13 -13 14 -20 5 -35z m95 -26 c12 -26 7
-55 -10 -55 -6 0 -5 6 2 15 10 12 9 20 -4 40 -9 14 -13 25 -8 25 5 0 14 -11
20 -25z m-744 2 c-2 -7 7 -24 21 -37 26 -24 33 -54 15 -65 -11 -7 -60 38 -60
55 0 6 -4 8 -10 5 -13 -8 -13 11 0 36 12 21 42 27 34 6z m710 -6 c17 -19 16
-21 -25 -63 -41 -42 -42 -42 -52 -20 -9 19 -5 28 22 55 17 19 28 36 25 40 -4
4 -3 7 3 7 5 0 18 -9 27 -19z"/>
<path d="M1930 1480 c0 -7 3 -10 7 -7 3 4 3 10 0 14 -4 3 -7 0 -7 -7z"/>
<path d="M1745 1186 c-11 -7 -24 -14 -30 -14 -5 0 -11 -5 -13 -11 -7 -20 26
-11 55 14 30 26 21 34 -12 11z"/>
<path d="M1460 959 c0 -8 -14 -36 -31 -62 -30 -45 -30 -46 -13 -79 9 -18 20
-35 24 -38 4 -3 14 -18 23 -35 9 -16 16 -23 17 -16 0 8 12 32 27 54 29 42 39
77 23 77 -6 0 -19 19 -30 43 -10 23 -24 49 -29 57 -9 13 -11 13 -11 -1z m40
-84 c22 -36 19 -57 -15 -85 -15 -12 -19 -11 -36 10 -19 26 -27 76 -9 65 6 -3
10 0 10 7 0 12 18 38 26 38 1 0 12 -16 24 -35z"/>
<path d="M1252 1024 c3 -32 7 -39 33 -46 23 -6 33 -4 43 9 19 26 15 40 -15 51
-16 5 -36 13 -46 17 -16 7 -18 3 -15 -31z"/>
<path d="M1618 1042 c-36 -16 -37 -18 -25 -42 23 -43 91 -21 85 28 -4 32 -14
34 -60 14z"/>
<path d="M1254 643 c13 -3 15 -7 7 -12 -8 -5 -9 -15 -2 -32 9 -21 10 -21 11
-4 0 16 2 17 9 5 6 -8 7 -18 5 -22 -3 -4 2 -5 10 -2 11 4 16 0 16 -11 0 -15 1
-15 17 1 16 16 16 18 -7 33 -13 9 -31 24 -39 34 -9 9 -22 16 -31 16 -10 -1 -9
-3 4 -6z"/>
<path d="M1621 469 c5 -11 14 -17 20 -14 15 10 10 22 -11 28 -17 4 -18 2 -9
-14z"/>
<path d="M1714 458 c-4 -7 -3 -8 4 -4 12 7 16 16 8 16 -3 0 -8 -5 -12 -12z"/>
<path d="M1280 460 c0 -11 2 -20 5 -20 2 0 9 9 15 20 9 16 8 20 -5 20 -8 0
-15 -9 -15 -20z"/>
<path d="M1200 465 c0 -5 5 -17 10 -25 5 -8 10 -10 10 -5 0 6 -5 17 -10 25 -5
8 -10 11 -10 5z"/>
<path d="M990 1460 c0 -7 3 -10 7 -7 3 4 3 10 0 14 -4 3 -7 0 -7 -7z"/>
<path d="M1105 1240 c3 -5 8 -10 11 -10 3 0 2 5 -1 10 -3 6 -8 10 -11 10 -3 0
-2 -4 1 -10z"/>
</g>
</svg>
