<?xml version="1.0"?><svg width="1000" height="1000" xmlns="http://www.w3.org/2000/svg">
 <g>
  <title>Layer 1</title>
  <path id="svg_11" fill="#000000" fill-rule="evenodd" stroke="#000000" stroke-width="0.5px" d="m663.5,291.799988l3.5,0.200012l1,0q1,0 0.799988,1q-0.299988,1 -0.599976,1.200012l-0.200012,0.299988l-2.5,0.5l-2.5,0.5l0.200012,0.299988l0.299988,0.200012l0.299988,0.200012l0.200012,0.299988l0.200012,0.299988l0.299988,0.200012l0.299988,0.200012l0.200012,0.299988l0.200012,0.299988l0.299988,0.200012l0.299988,0.200012l0.200012,0.299988l3,0.299988q3,0.200012 3.5,1.400024q0.5,1.299988 0.700012,1.599976l0.299988,0.200012l0,2.5l0,2.5l-0.299988,0.200012l-0.200012,0.299988l-0.200012,0.299988q-0.299988,0.200012 -1.599976,0.700012q-1.200012,0.5 -1.400024,2.5q-0.299988,2 -5,4.799988q-4.799988,2.700012 -2.299988,4.200012q2.5,1.5 -0.5,2.5l-3,1l-1,0.5l-1,0.5l1.5,0.5l1.5,0.5l1,0l1,0l0.200012,-0.299988l0.299988,-0.200012l11.299988,4.200012q11.200012,4.299988 18,5.599976q6.700012,1.200012 7.400024,2q0.799988,0.700012 1.799988,1.200012l1,0.5l0,1q0,1 0.5,1.5q0.5,0.5 -1,0.799988q-1.5,0.200012 -1,2.200012q0.5,2 3.700012,4q3.299988,2 3.599976,2.200012l0.200012,0.299988l0.200012,0.299988l0.299988,0.200012l0.299988,0.200012l0.200012,0.299988l1,0.299988l1,0.200012l0,0.200012l0,0.299988l-1.5,0.5l-1.5,0.5l-1,0.5l-1,0.5l-1.5,0.5q-1.5,0.5 -10,3.200012q-8.5,2.799988 -9.299988,5.299988q-0.700012,2.5 -4,4.299988q-3.200012,1.700012 -4.400024,4.400024q-1.299988,2.799988 -2.599976,3.599976q-1.200012,0.700012 -2.400024,3q-1.299988,2.200012 -11.799988,14.700012l-10.5,12.5l-0.299988,1l-0.200012,1l-0.5,0.200012l-0.5,0.299988l-0.200012,0.299988q-0.299988,0.200012 -1.799988,3.200012q-1.5,3 -3.799988,4.200012q-2.200012,1.299988 -6,5.599976q-3.700012,4.200012 -6.400024,5.200012q-2.799988,1 -3.599976,3.5q-0.700012,2.5 -4.700012,7.5q-4,5 -7.700012,6.799988q-3.799988,1.700012 -8.799988,2.200012q-5,0.5 -9.5,-1.200012q-4.5,-1.799988 -5.5,-3.599976l-1,-1.700012l-0.200012,-0.299988l-0.299988,-0.200012l-0.299988,0l-0.200012,0l-0.200012,-1q-0.299988,-1 -0.299988,-4q0,-3 -2.5,-5q-2.5,-2 -0.799988,-2.799988q1.799988,-0.700012 0.299988,-1.400024q-1.5,-0.799988 -1.700012,-1.799988l-0.299988,-1l-0.299988,-0.200012l-0.200012,-0.299988l-0.200012,-0.299988q-0.299988,-0.200012 -6.599976,-0.200012q-6.200012,0 -6.400024,1q-0.299988,1 -2.799988,-4.5q-2.5,-5.5 -6.799988,-5.700012l-4.200012,-0.299988l-1,-0.5l-1,-0.5l-0.200012,-0.299988l-0.299988,-0.200012l-0.299988,-1l-0.200012,-1l2,-0.200012q2,-0.299988 2.5,-1.599976q0.5,-1.200012 1.5,-1.400024q1,-0.299988 0.5,-1.599976q-0.5,-1.200012 -1.700012,-1.700012q-1.299988,-0.5 -0.599976,-1q0.799988,-0.5 0.799988,-1.5l0,-1l0.200012,0q0.299988,0 0.599976,-0.5l0.200012,-0.5l2.200012,-2q2.299988,-2 2,-2.799988q-0.200012,-0.700012 1.799988,-1.200012q2,-0.5 5.200012,-2.200012q3.299988,-1.799988 3.599976,0q0.200012,1.700012 2,0.400024q1.700012,-1.200012 4.400024,-5q2.799988,-3.700012 5,-3q2.299988,0.799988 3.299988,-0.700012q1,-1.5 1.700012,-8.700012q0.799988,-7.299988 0.799988,-9.599976q0,-2.200012 -1.5,-2.200012q-1.5,0 -1.299988,-1q0.299988,-1 0.799988,-2l0.5,-1l0.5,-1q0.5,-1 1.200012,-0.200012q0.799988,0.700012 3.299988,0q2.5,-0.799988 2.5,-2.299988q0,-1.5 4,-2.700012q4,-1.299988 4.200012,-1.599976l0.299988,-0.200012l0.299988,-0.200012l0.200012,-0.299988l-2.5,-0.5q-2.5,-0.5 -1.299988,-1.200012q1.299988,-0.799988 0.799988,-3.799988q-0.5,-3 1,-4.5q1.5,-1.5 2,-6q0.5,-4.5 1.799988,-7.299988q1.200012,-2.700012 11.200012,-5.200012q10,-2.5 14.5,-5q4.5,-2.5 9.700012,-4.200012q5.299988,-1.799988 5.599976,-2.799988q0.200012,-1 1.400024,-1.5q1.299988,-0.5 0.799988,-5q-0.5,-4.5 -0.5,-6.5q0,-2 -0.299988,-2.200012q-0.200012,-0.299988 -0.200012,-0.599976l0,-0.200012l5.799988,-0.5q5.700012,-0.5 5.400024,-0.299988q-0.200012,0.299988 3.299988,0.599976z"/>
  <path id="svg_17" fill="#000000" fill-rule="evenodd" stroke="#000000" stroke-width="0.5px" d="m647,291.799988l2,0.200012l0,0.200012q0,0.299988 0.200012,0.599976q0.299988,0.200012 0.299988,2.200012q0,2 0.5,6.5q0.5,4.5 -0.799988,5q-1.200012,0.5 -1.400024,1.5q-0.299988,1 -5.599976,2.799988q-5.200012,1.700012 -9.700012,4.200012q-4.5,2.5 -14.5,5q-10,2.5 -11.200012,5.200012q-1.299988,2.799988 -1.799988,7.299988q-0.5,4.5 -2,6q-1.5,1.5 -1,4.5q0.5,3 -0.799988,3.799988q-1.200012,0.700012 1.299988,1.200012l2.5,0.5l-0.200012,0.299988l-0.299988,0.200012l-0.299988,0.200012q-0.200012,0.299988 -4.200012,1.599976q-4,1.200012 -4,2.700012q0,1.5 -2.5,2.299988q-2.5,0.700012 -3.299988,0q-0.700012,-0.799988 -1.200012,0.200012l-0.5,1l0,1q0,1 0.700012,4.200012q0.799988,3.299988 0,10.599976q-0.700012,7.200012 -1.700012,8.700012q-1,1.5 -3.299988,0.700012q-2.200012,-0.700012 -5,3q-2.700012,3.799988 -4.400024,5q-1.799988,1.299988 -2,-0.400024q-0.299988,-1.799988 -3.599976,0q-3.200012,1.700012 -5,2.400024q-1.700012,0.799988 -3.400024,3.599976l-1.799988,2.700012l-1,0.299988l-1,0.200012l-0.200012,-1.5q-0.299988,-1.5 -1.599976,-1.700012q-1.200012,-0.299988 -2.200012,-4q-1,-3.799988 -3.5,-4q-2.5,-0.299988 -3.5,1.400024q-1,1.799988 -2,1.599976q-1,-0.299988 -3.200012,1l-2.299988,1.200012l-0.299988,-0.200012q-0.200012,-0.299988 -2.400024,-2q-2.299988,-1.799988 -2,-3.599976q0.200012,-1.700012 -3.299988,-1.200012l-3.5,0.5l-0.200012,0.299988l-0.299988,0.200012l-0.299988,0.200012l-0.200012,0.299988l-1,0.299988l-1,0.200012l0,-1l0,-1l1,-0.200012l1,-0.299988l0.200012,-0.299988l0.299988,-0.200012l0.5,-1l0.5,-1l0.299988,-0.200012l0.200012,-0.299988l0.200012,-0.299988l0.299988,-0.200012l5,-7.5q5,-7.5 13.5,-27q8.5,-19.5 11,-24.5q2.5,-5 3.799988,-7q1.200012,-2 2.200012,-2q1,0 1,-1.5q0,-1.5 2,-1.5q2,0 2,-1q0,-1 25,-9.200012q25,-8.299988 40,-9.799988q15,-1.5 13,-0.5q-2,1 0,1.299988zm-106,94.200012q0,-1 1,-1q1,0 1.5,1.200012q0.5,1.299988 -1,1q-1.5,-0.200012 -1.5,-1.200012z"/>
  <path id="svg_18" fill="#000000" fill-rule="evenodd" stroke="#000000" stroke-width="0.5px" d="m390,400.200012l0,-0.200012l19.5,8.200012q19.5,8.299988 25.5,7.799988q6,-0.5 7.5,-1l1.5,-0.5l1,-0.299988l1,-0.200012l-0.200012,1l-0.299988,1l-1.299988,10q-1.200012,10 0.299988,10q1.5,0 2.700012,4.5q1.299988,4.5 3,4.700012q1.799988,0.299988 4.599976,2q2.700012,1.799988 3,2.799988l0.200012,1l-2,0.200012l-2,0.299988l0.200012,0.299988l0.299988,0.200012l0.299988,1l0.200012,1l0.799988,0.5q0.700012,0.5 1.700012,3.5q1,3 1.299988,5.200012q0.200012,2.299988 2.200012,4.799988q2,2.5 2.200012,2.200012q0.299988,-0.200012 0.799988,-2.200012l0.5,-2l0.5,1l0.5,1l0,1l0,1l-0.700012,1.200012q-0.799988,1.299988 -2,2q-1.299988,0.799988 -1.599976,2.599976q-0.200012,1.700012 0.799988,2q1,0.200012 0.5,1.400024q-0.5,1.299988 -0.299988,1.599976l0.299988,0.200012l0.299988,0.200012l0.200012,0.299988l-1,0.299988l-1,0.200012l-0.200012,1l-0.299988,1l-0.299988,-0.200012l-0.200012,-0.299988l-0.200012,-0.299988q-0.299988,-0.200012 -0.599976,-0.200012l-0.200012,0l-0.5,-0.200012q-0.5,-0.299988 -6,-1.299988q-5.5,-1 -19.5,-4q-14,-3 -19.5,-5q-5.5,-2 -13.5,-4q-8,-2 -23.5,-4.5q-15.5,-2.5 -24.5,-3.5q-9,-1 -26.5,-1.299988l-17.5,-0.200012l0.200012,-0.5l0.299988,-0.5l0.299988,-0.200012l0.200012,-0.299988l-1,-0.5l-1,-0.5l0.200012,-0.299988l0.299988,-0.200012l0.5,-1.5q0.5,-1.5 2.5,-5q2,-3.5 3,-8.5l1,-5l0.5,-2l0.5,-2l0.299988,0.200012l0.200012,0.299988l0.200012,0.299988l0.299988,0.200012l0.700012,1.200012q0.799988,1.299988 1.799988,2.599976q1,1.200012 2,1.400024l1,0.299988l0.200012,0.299988l0.299988,0.200012l0.5,1l0.5,1l0.299988,-0.200012l0.200012,-0.299988l0.200012,-0.299988l0.299988,-0.200012l0.299988,0.200012l0.200012,0.299988l0.200012,0.299988l0.299988,0.200012l0.299988,-9l0.200012,-9l1,0.200012l1,0.299988l1,0l1,0l0.200012,-0.299988l0.299988,-0.200012l0.299988,0.200012l0.200012,0.299988l0.200012,0.299988l0.299988,0.200012l0.299988,0.200012l0.200012,0.299988l0.799988,1.700012q0.700012,1.799988 1.200012,3.799988l0.5,2l0.299988,0.200012l0.200012,0.299988l0.200012,0.299988l0.299988,0.200012l0,-1.5l0,-1.5l0,-3l0,-3l0.299988,-0.200012l0.200012,-0.299988l0.200012,-0.299988l0.299988,-0.200012l2.700012,2q2.799988,2 2.799988,0q0,-2 1,-2q1,0 1.5,1.799988q0.5,1.700012 1.299988,1.400024q0.700012,-0.200012 1.400024,-2q0.799988,-1.700012 1.299988,0q0.5,1.799988 1.5,1.799988q1,0 1,-2q0,-2 3.5,-1.5q3.5,0.5 3.5,1.5q0,1 3,0q3,-1 3,-2q0,-1 2.200012,-1q2.299988,0 2.599976,-1.5q0.200012,-1.5 2.400024,-2q2.299988,-0.5 2.599976,1q0.200012,1.5 1.700012,1.5q1.5,0 2,-1.799988q0.5,-1.700012 2,-1.400024q1.5,0.200012 1.5,-0.799988q0,-1 -0.799988,-1.5q-0.700012,-0.5 0.799988,-3q1.5,-2.5 2.799988,-2q1.200012,0.5 1.200012,-0.5q0,-1 1,-1q1,0 1,-2.5q0,-2.5 1,-2.5q1,0 1.5,-1.200012q0.5,-1.299988 0.5,-1.599976z"/>
  <path id="svg_21" fill="#000000" fill-rule="evenodd" stroke="#000000" stroke-width="0.5px" d="m765,272.200012l6,-0.200012l0,1l0,1l-1,0.200012l-1,0.299988l-0.200012,0.299988l-0.299988,0.200012l-0.299988,0.200012l-0.200012,0.299988l-1,0.5l-1,0.5l-1,0.5q-1,0.5 -3.5,1.5l-2.5,1l-1,0.5l-1,0.5l-2,0.5l-2,0.5l-1,0.5l-1,0.5l5.5,0q5.5,0 24,0l18.5,0l3.5,0.5l3.5,0.5l1,0.5l1,0.5l-1,0.5l-1,0.5l-1.5,0.5l-1.5,0.5l-1.5,0.5l-1.5,0.5l-2,0.5q-2,0.5 -3.5,1q-1.5,0.5 -16.5,2l-15,1.5l-0.200012,0.299988l-0.299988,0.200012l-0.299988,0.200012l-0.200012,0.299988l18,1q18,1 24,1.5l6,0.5l3.5,0.5l3.5,0.5l1,0.5l1,0.5l-1.5,0.5l-1.5,0.5l-1,0.5l-1,0.5l-1,0.5l-1,0.5l-2,0.5q-2,0.5 -3.5,1q-1.5,0.5 -20.5,2l-19,1.5l3,0.5l3,0.5l17.5,3.5q17.5,3.5 19.5,4l2,0.5l1.5,0.5l1.5,0.5l1,0.299988l1,0.200012l0,1l0,1l-4,0.200012l-4,0.299988l-8.5,0.5l-8.5,0.5l0.200012,0.299988l0.299988,0.200012l0.299988,0.200012l0.200012,0.299988l1,0.5l1,0.5l1.5,0.5l1.5,0.5l1.5,0.5q1.5,0.5 3,1l1.5,0.5l1.5,0.5l1.5,0.5l1.5,0.299988l1.5,0.200012l0,1l0,1l-13,-0.200012q-13,-0.299988 -18,-0.799988l-5,-0.5l-3,0l-3,0l1,0.5l1,0.5l1.5,0.5l1.5,0.5l1.5,0.5l1.5,0.5l3,1q3,1 5,1.5l2,0.5l1.5,0.5l1.5,0.5l1,0.5l1,0.5l0.200012,0.299988l0.299988,0.200012l0.299988,0.200012l0.200012,0.299988l-6,0q-6,0 -16.5,-1.299988q-10.5,-1.200012 -10.299988,0.299988q0.299988,1.5 -11.400024,2.700012q-11.799988,1.299988 -13.799988,2.299988q-2,1 -11,2.700012q-9,1.799988 -9.200012,4.799988q-0.299988,3 -1.599976,3.5l-1.200012,0.5l-1,-0.200012l-1,-0.299988l-0.200012,-0.299988l-0.299988,-0.200012l-0.299988,-0.200012l-0.200012,-0.299988l-0.200012,-0.299988q-0.299988,-0.200012 -1,-1q-0.799988,-0.700012 -4.299988,-2q-3.5,-1.200012 -3,-3.200012q0.5,-2 2,-2.200012q1.5,-0.299988 1,-0.799988q-0.5,-0.5 -0.5,-1.5l0,-1l-1,-0.5q-1,-0.5 -1.799988,-1.200012q-0.700012,-0.799988 -7.400024,-2q-6.799988,-1.299988 -18,-5.599976l-11.299988,-4.200012l-0.299988,0.200012l-0.200012,0.299988l-1,0l-1,0l-1.5,-0.5l-1.5,-0.5l1,-0.5l1,-0.5l3,-1q3,-1 0.5,-2.5q-2.5,-1.5 2.299988,-4.200012q4.700012,-2.799988 5,-4.799988q0.200012,-2 1.400024,-2.5q1.299988,-0.5 1.599976,-0.700012l0.200012,-0.299988l0.200012,-0.299988l0.299988,-0.200012l0,-2.5l0,-2.5l-0.299988,-0.200012q-0.200012,-0.299988 -0.700012,-1.599976q-0.5,-1.200012 -3.5,-1.400024l-3,-0.299988l-0.200012,-0.299988l-0.299988,-0.200012l-0.299988,-0.200012l-0.200012,-0.299988l-0.200012,-0.299988l-0.299988,-0.200012l-0.299988,-0.200012l-0.200012,-0.299988l-0.200012,-0.299988l-0.299988,-0.200012l-0.299988,-0.200012l-0.200012,-0.299988l2.5,-0.5l2.5,-0.5l0.200012,-0.299988q0.299988,-0.200012 0.599976,-1.200012q0.200012,-1 -0.799988,-1l-1,0l-0.200012,0l-0.299988,0l0,-1l0,-1l0.299988,-0.200012q0.200012,-0.299988 1.200012,-0.599976l1,-0.200012l36.5,-7.200012q36.5,-7.299988 45,-8.299988q8.5,-1 14.5,-1.299988zm-8.799988,62.599976q-0.200012,-0.299988 0,-0.599976q0.299988,-0.200012 0.299988,0.299988q0,0.5 -0.299988,0.299988z"/>
  <path id="svg_22" fill="#000000" fill-rule="evenodd" stroke="#000000" stroke-width="0.5px" d="m538.200012,392.799988l0.299988,0.200012l2.299988,-1.200012q2.200012,-1.299988 3.200012,-1q1,0.200012 0.5,-1q-0.5,-1.299988 -3,-1.799988q-2.5,-0.5 -1.5,-0.799988q1,-0.200012 1,-1.200012q0,-1 1,-1q1,0 1,1q0,1 4.5,1.5q4.5,0.5 5.5,4.299988q1,3.700012 3,3q2,-0.799988 1.799988,0.700012q-0.299988,1.5 0,2l0.200012,0.5l-0.5,0.200012q-0.5,0.299988 -0.5,0.599976l0,0.200012l0,1q0,1 -0.799988,1.5q-0.700012,0.5 0.599976,1q1.200012,0.5 1.700012,1.700012q0.5,1.299988 -0.5,1.599976q-1,0.200012 -1.5,1.400024q-0.5,1.299988 -2.5,1.599976l-2,0.200012l0.200012,1l0.299988,1l0.299988,0.200012l0.200012,0.299988l1,0.5l1,0.5l4.200012,0.299988q4.299988,0.200012 6,3q1.799988,2.700012 2.799988,2.400024q1,-0.200012 1,1.799988q0,2 6.200012,2q6.299988,0 6.599976,0.200012l0.200012,0.299988l0.200012,0.299988l0.299988,0.200012l0.299988,1q0.200012,1 1.400024,2q1.299988,1 1,2.5q-0.200012,1.5 1,2.5q1.299988,1 1.299988,4q0,3 0.299988,4l0.200012,1l-0.5,0.200012l-0.5,0.299988l-0.200012,0.299988l-0.299988,0.200012l-0.5,1q-0.5,1 -2,4.5q-1.5,3.5 -8.200012,7q-6.799988,3.5 -7,6q-0.299988,2.5 -1.299988,4q-1,1.5 -11.700012,5.700012l-10.799988,4.299988l-1,0l-1,0l-1,0l-1,0l0,0.299988l0,0.200012l-0.5,-0.200012q-0.5,-0.299988 -1.700012,-1q-1.299988,-0.799988 -2,1.200012q-0.799988,2 -1.799988,2q-1,0 -1.5,-1.200012q-0.5,-1.299988 -1.700012,0q-1.299988,1.200012 -4.599976,1.200012q-3.200012,0 -3.200012,-1q0,-1 -1,-1.200012q-1,-0.299988 -7,-0.799988q-6,-0.5 -8.5,0.200012q-2.5,0.799988 -2.5,-0.200012q0,-1 -4,0.5q-4,1.5 -3.799988,0.5q0.299988,-1 -3,-1l-3.200012,0l-0.200012,-0.5q-0.299988,-0.5 -0.799988,-2.5q-0.5,-2 -0.799988,-7.5q-0.200012,-5.5 -1.200012,-5.5q-1,0 -1,-1q0,-1 -2,-1q-2,0 -1.5,-2.5l0.5,-2.5l-1,-0.200012l-1,-0.299988l0,-0.299988l0,-0.200012l0,-0.200012l0,-0.299988l0.200012,-0.299988l0.299988,-0.200012l0.299988,-0.200012l0.200012,-0.299988l0.200012,-0.299988q0.299988,-0.200012 0.599976,-1.200012q0.200012,-1 3.700012,-0.5q3.5,0.5 3.700012,-1.5q0.299988,-2 4,-4.5q3.799988,-2.5 4.599976,-4q0.700012,-1.5 0.700012,-6.5q0,-5 0.5,-6q0.5,-1 -0.799988,-2q-1.200012,-1 -1,-3.5q0.299988,-2.5 -1,-3q-1.200012,-0.5 -1.400024,-1.5q-0.299988,-1 -1.599976,-0.5q-1.200012,0.5 -1,-1q0.299988,-1.5 -1.400024,-3.299988l-1.799988,-1.700012l-0.200012,-0.299988l-0.299988,-0.200012l-0.299988,-0.200012l-0.200012,-0.299988l-1,-0.5l-1,-0.5l2.5,-0.5l2.5,-0.5l12,-4q12,-4 15.200012,-7.700012q3.299988,-3.799988 3.599976,-3.799988l0.200012,0l0.200012,0q0.299988,0 0.599976,-0.5l0.200012,-0.5l1,-0.200012l1,-0.299988l3.5,-0.5q3.5,-0.5 5.5,3q2,3.5 2.200012,3.799988zm44,35q-0.200012,-0.299988 0,-0.599976q0.299988,-0.200012 0.299988,0.299988q0,0.5 -0.299988,0.299988z"/>
  <path id="svg_23" fill="#000000" fill-rule="evenodd" stroke="#000000" stroke-width="0.5px" d="m540.5,473.799988l0.5,0.200012l0,0.200012l0,0.299988l2.5,0.5l2.5,0.5l1.799988,0.700012q1.700012,0.799988 3,4q1.200012,3.299988 3,5q1.700012,1.799988 4,9.299988q2.200012,7.5 4,9q1.700012,1.5 2,2.5q0.200012,1 -1.299988,1.799988q-1.5,0.700012 4,4.200012q5.5,3.5 9,2.200012q3.5,-1.200012 3.5,-0.200012q0,1 1.200012,0.5q1.299988,-0.5 1.599976,-0.700012l0.200012,-0.299988l0.200012,-0.299988l0.299988,-0.200012l0.299988,-0.200012l0.200012,-0.299988l1,-0.299988l1,-0.200012l0,1.5l0,1.5l1,0.200012l1,0.299988l-0.200012,0.299988l-0.299988,0.200012l-0.5,2l-0.5,2l-0.299988,1l-0.200012,1l-1,0.200012q-1,0.299988 -2.5,0.799988q-1.5,0.5 -2,1.799988q-0.5,1.200012 -3.299988,0.700012l-2.700012,-0.5l1.299988,2.200012q1.200012,2.299988 1.700012,2.799988q0.5,0.5 -0.5,0.799988q-1,0.200012 -1.5,4.400024q-0.5,4.299988 0.5,4.799988q1,0.5 2,1l1,0.5l0.200012,0.299988l0.299988,0.200012l0.299988,0.200012l0.200012,0.299988l-1,0l-1,0l-2.5,-0.5q-2.5,-0.5 -4,-0.5l-1.5,0l0.200012,0.299988l0.299988,0.200012l0,0.5l0,0.5l-0.299988,0.200012l-0.200012,0.299988l0.799988,1.700012q0.700012,1.799988 1.200012,2.799988l0.5,1l0,1l0,1l-0.299988,0.200012l-0.200012,0.299988l-0.200012,0.299988l-0.299988,0.200012l-0.299988,-0.200012l-0.200012,-0.299988l-1,-0.5q-1,-0.5 -2,-1.5l-1,-1l-0.200012,-0.299988l-0.299988,-0.200012l0,2l0,2l0.5,1q0.5,1 1.5,4q1,3 -0.700012,3.200012q-1.799988,0.299988 -2.799988,4.599976q-1,4.200012 -3,3.400024q-2,-0.700012 -2.5,2.599976q-0.5,3.200012 -9.5,3.200012l-9,0l0.200012,1q0.299988,1 0.299988,8l0,7l-0.299988,0.200012l-0.200012,0.299988l-0.200012,0.299988l-0.299988,0.200012l-0.299988,0.200012l-0.200012,0.299988l-1,0l-1,0l-0.200012,-0.299988l-0.299988,-0.200012l-0.5,1l-0.5,1l-0.299988,-3q-0.200012,-3 -1.200012,-3q-1,0 -1.200012,1l-0.299988,1l-0.5,1l-0.5,1l-0.299988,-0.200012l-0.200012,-0.299988l-2,-0.299988l-2,-0.200012l0.200012,-1l0.299988,-1l0.299988,-0.200012l0.200012,-0.299988l0.200012,-0.299988l0.299988,-0.200012l0.299988,-0.200012l0.200012,-0.299988l0.200012,-0.299988q0.299988,-0.200012 0.599976,-4.200012q0.200012,-4 -0.799988,-4q-1,0 -1,-1q0,-1 1,-1.200012q1,-0.299988 3.5,-4.599976q2.5,-4.200012 1,-4.200012q-1.5,0 -1.700012,-4.5q-0.299988,-4.5 -1.799988,-9l-1.5,-4.5l-0.5,-1.5l-0.5,-1.5l-0.299988,-1l-0.200012,-1l-1.5,0l-1.5,0l0.200012,-1q0.299988,-1 1.599976,-1.5q1.200012,-0.5 0,-6.5q-1.299988,-6 -1.799988,-5q-0.5,1 -1.799988,-0.200012q-1.200012,-1.299988 -2,-0.599976q-0.700012,0.799988 -3.400024,-0.200012q-2.799988,-1 -4.299988,-4.5q-1.5,-3.5 -3.5,-3.700012l-2,-0.299988l2,-0.700012q2,-0.799988 1.5,-3q-0.5,-2.299988 1.5,-2.599976l2,-0.200012l0,-1l0,-1l-1,-0.200012q-1,-0.299988 -1.200012,-0.599976q-0.299988,-0.200012 -2,-0.200012q-1.799988,0 -2,-1q-0.299988,-1 -2.599976,-2.200012q-2.200012,-1.299988 -1.200012,-1.599976q1,-0.200012 0.5,-2.200012q-0.5,-2 -2,-2q-1.5,0 -2,-4q-0.5,-4 0.5,-4q1,0 1.200012,1q0.299988,1 1,-1l0.799988,-2l-1,-0.200012q-1,-0.299988 -2.5,-0.599976q-1.5,-0.200012 -2.5,-3.200012q-1,-3 -2.5,-3q-1.5,0 -1.299988,-3q0.299988,-3 -1.400024,-3.799988q-1.799988,-0.700012 -1.799988,-3l0,-2.200012l4,0.200012q4,0.299988 7,-0.400024q3,-0.799988 3,0.200012q0,1 2.5,0.200012q2.5,-0.700012 8.5,-0.200012q6,0.5 7,0.799988q1,0.200012 1,1.200012q0,1 3.200012,1q3.299988,0 4.599976,-1.200012q1.200012,-1.299988 1.700012,0q0.5,1.200012 1.5,1.200012q1,0 1.799988,-2q0.700012,-2 2,-1.200012q1.200012,0.700012 1.700012,1z"/>
  <path id="svg_24" fill="#000000" fill-rule="evenodd" stroke="#000000" stroke-width="0.5px" d="m389,399.799988l1,0.200012l0,0.200012q0,0.299988 -0.5,1.599976q-0.5,1.200012 -1.5,1.200012q-1,0 -1,2.5q0,2.5 -1,2.5q-1,0 -1,1q0,1 -1.200012,0.5q-1.299988,-0.5 -2.799988,2q-1.5,2.5 -0.799988,3q0.799988,0.5 0.799988,1.5q0,1 -1.5,0.799988q-1.5,-0.299988 -2,1.400024q-0.5,1.799988 -2,1.799988q-1.5,0 -1.700012,-1.5q-0.299988,-1.5 -2.599976,-1q-2.200012,0.5 -2.700012,3q-0.5,2.5 -2,1.700012q-1.5,-0.700012 -2,0q-0.5,0.799988 -3.5,1.799988q-3,1 -3,0q0,-1 -3.5,-1.5q-3.5,-0.5 -3.5,1.5q0,2 -1,2q-1,0 -1.5,-1.799988q-0.5,-1.700012 -1.299988,0q-0.700012,1.799988 -1.400024,2q-0.799988,0.299988 -1.299988,-1.400024q-0.5,-1.799988 -1.5,-1.799988q-1,0 -1,2q0,2 -2.799988,0l-2.700012,-2l-0.299988,0.200012l-0.200012,0.299988l-0.200012,0.299988l-0.299988,0.200012l0,3l0,3l0,1.5l0,1.5l-0.299988,-0.200012l-0.200012,-0.299988l-0.200012,-0.299988l-0.299988,-0.200012l-0.5,-2q-0.5,-2 -1.200012,-3.799988l-0.799988,-1.700012l-0.200012,-0.299988l-0.299988,-0.200012l-0.299988,-0.200012l-0.200012,-0.299988l-0.200012,-0.299988l-0.299988,-0.200012l-0.299988,0.200012l-0.200012,0.299988l-1,0l-1,0l-1,-0.299988l-1,-0.200012l-0.200012,9l-0.299988,9l-0.299988,-0.200012l-0.200012,-0.299988l-0.200012,-0.299988l-0.299988,-0.200012l-0.299988,0.200012l-0.200012,0.299988l-0.200012,0.299988l-0.299988,0.200012l-0.5,-1l-0.5,-1l-0.299988,0.200012l-0.200012,0.299988l-1,0.299988l-1,0.200012l-0.200012,-2q-0.299988,-2 -1,-2.200012q-0.799988,-0.299988 -1.599976,-1.599976l-0.700012,-1.200012l-0.299988,-0.200012l-0.200012,-0.299988l-0.200012,-0.299988l-0.299988,-0.200012l-0.5,2l-0.5,2l-1,5q-1,5 -3,8.5q-2,3.5 -2.5,5l-0.5,1.5l-0.299988,0.200012l-0.200012,0.299988l1,0.5l1,0.5l-0.200012,0.299988l-0.299988,0.200012l-0.299988,0.5l-0.200012,0.5l-0.5,-0.200012q-0.5,-0.299988 -13.5,2.200012l-13,2.5l-1.5,0.5l-1.5,0.5l-0.200012,0.299988l-0.299988,0.200012l-0.299988,0.200012l-0.200012,0.299988l-1,0.299988l-1,0.200012l0,-1l0,-1l1,0l1,0l0.200012,-1.5l0.299988,-1.5l0.299988,-0.200012l0.200012,-0.299988l-0.200012,-0.299988l-0.299988,-0.200012l-0.299988,-0.200012l-0.200012,-0.299988l0.200012,-0.299988l0.299988,-0.200012l0.299988,-0.200012q0.200012,-0.299988 1.400024,-0.599976q1.299988,-0.200012 1.299988,-3.700012q0,-3.5 2,-5.5q2,-2 1.299988,-2.799988q-0.799988,-0.700012 -0.599976,-3q0.299988,-2.200012 0.799988,-3.700012q0.5,-1.5 -1,-5q-1.5,-3.5 -2.799988,-3q-1.200012,0.5 0.299988,-1.700012q1.5,-2.299988 3.700012,-10l2.299988,-7.799988l0.299988,-0.200012l0.200012,-0.299988l0.200012,-0.299988l0.299988,-0.200012l0.299988,-0.200012l0.200012,-0.299988l0.200012,-0.299988l0.299988,-0.200012l0.299988,-0.200012l0.200012,-0.299988l-2.5,0q-2.5,0 -4,0q-1.5,0 -2.5,-1q-1,-1 -6,-1.5q-5,-0.5 -5.5,-1.799988q-0.5,-1.200012 -6.5,-2.200012l-6,-1l0,-2l0,-2l2,-0.799988q2,-0.700012 2.200012,-1l0.299988,-0.200012l0.299988,-0.200012l0.200012,-0.299988l-3.5,-0.5l-3.5,-0.5l0.199997,-0.299988l0.300003,-0.200012l0.300003,-0.200012l0.199997,-0.299988l1,-0.5l1,-0.5l0.200012,-0.299988l0.299988,-0.200012l0.299988,0l0.200012,0l12.5,-4.200012q12.5,-4.299988 29,-7.299988q16.5,-3 26.5,-2.5q10,0.5 36,11q26,10.5 27,10.799988z"/>
  <path id="svg_28" fill="#000000" fill-rule="evenodd" stroke="#000000" stroke-width="0.5px" d="m481,448.799988l1,0.200012l0.5,0l0.5,0l0,3q0,3 2,3q2,0 2,1q0,1 1,1q1,0 1.200012,5.5q0.299988,5.5 0.799988,7.5q0.5,2 0.799988,2.5l0.200012,0.5l0,2.200012q0,2.299988 1.799988,3q1.700012,0.799988 1.400024,3.799988q-0.200012,3 1.299988,3q1.5,0 2.5,3q1,3 3.5,2.5q2.5,-0.5 1.700012,2.5q-0.700012,3 -1,2q-0.200012,-1 -1.200012,-1q-1,0 -0.5,4q0.5,4 2,4q1.5,0 2,2q0.5,2 -0.5,2.200012q-1,0.299988 1.200012,1.599976q2.299988,1.200012 2.599976,2.200012q0.200012,1 2,1q1.700012,0 2,0.200012q0.200012,0.299988 1.200012,0.599976l1,0.200012l0,1l0,1l-2,0.200012q-2,0.299988 -1.5,2.599976q0.5,2.200012 -1.5,3l-2,0.700012l2,0.299988q2,0.200012 3.5,3.700012q1.5,3.5 4.299988,4.5q2.700012,1 3.400024,0.200012q0.799988,-0.700012 2,0.599976q1.299988,1.200012 1.799988,0.200012q0.5,-1 1.799988,5q1.200012,6 0,6.5q-1.299988,0.5 -1.599976,1.5l-0.200012,1l0,0.200012l0,0.299988l0.200012,0.299988l0.299988,0.200012l0.5,1l0.5,1l0.5,1l0.5,1l0,1.5l0,1.5l-0.299988,-0.200012l-0.200012,-0.299988l-0.200012,-0.299988l-0.299988,-0.200012l-0.5,-1l-0.5,-1l-0.299988,-0.200012l-0.200012,-0.299988l-1,0q-1,0 -2,-1.5l-1,-1.5l-0.200012,-0.299988l-0.299988,-0.200012l-0.299988,-0.200012l-0.200012,-0.299988l-0.200012,-0.299988l-0.299988,-0.200012l-0.299988,1.5l-0.200012,1.5l-1,0l-1,0l0.200012,2q0.299988,2 0.599976,3.5l0.200012,1.5l-1,0l-1,0l0,-1.5l0,-1.5l-1,0l-1,0l-0.200012,-1q-0.299988,-1 -0.599976,-4.5q-0.200012,-3.5 -1.700012,-3.299988q-1.5,0.299988 -6,-1.400024q-4.5,-1.799988 -4.700012,-3.799988q-0.299988,-2 -1.599976,-2.5q-1.200012,-0.5 -1.700012,-1.700012l-0.5,-1.299988l-0.200012,-0.299988l-0.299988,-0.200012l-0.299988,-0.200012l-0.200012,-0.299988l-1.5,-0.299988l-1.5,-0.200012l-0.200012,1l-0.299988,1l-0.299988,0.200012l-0.200012,0.299988l-0.200012,0.299988l-0.299988,0.200012l-0.5,1.5q-0.5,1.5 -0.799988,2.700012q-0.200012,1.299988 -2.200012,1.299988q-2,0 -3.799988,4.700012q-1.700012,4.799988 -1.200012,8.799988q0.5,4 -0.799988,4.5q-1.200012,0.5 -1.700012,3.299988q-0.5,2.700012 -1.5,3q-1,0.200012 -2.5,2.400024q-1.5,2.299988 -3,2.599976q-1.5,0.200012 -2.5,2q-1,1.700012 -4.200012,3.400024q-3.299988,1.799988 -3,3.799988q0.200012,2 -5.799988,2q-6,0 -6.200012,-1l-0.299988,-1l-0.299988,0.200012l-0.200012,0.299988l-0.200012,0.299988l-0.299988,0.200012l-1,1.5q-1,1.5 -1,7.5q0,6 -0.5,6.5q-0.5,0.5 -0.799988,2l-0.200012,1.5l-2,-0.200012l-2,-0.299988l-1.5,-0.299988l-1.5,-0.200012l0,1l0,1l-1,-0.200012l-1,-0.299988l0.200012,-0.299988l0.299988,-0.200012l0,-1.5l0,-1.5l-0.299988,-0.200012l-0.200012,-0.299988l-0.200012,-0.299988l-0.299988,-0.200012l-0.299988,0.200012l-0.200012,0.299988l-1.5,0.299988l-1.5,0.200012l0.200012,-2q0.299988,-2 0.799988,-5q0.5,-3 3,-6q2.5,-3 6.200012,-5.5q3.799988,-2.5 4.599976,-4.5q0.700012,-2 1.200012,-20.5q0.5,-18.5 5.5,-32q5,-13.5 7,-17.5q2,-4 -0.299988,-11l-2.200012,-7l0.200012,0q0.299988,0 0.599976,0.200012l0.200012,0.299988l0.200012,0.299988l0.299988,0.200012l0.299988,-1l0.200012,-1l1,-0.200012l1,-0.299988l-1,-0.299988q-1,-0.200012 -0.799988,-3.700012q0.299988,-3.5 1.599976,-4.299988q1.200012,-0.700012 -1.299988,-4.200012q-2.5,-3.5 -2.700012,-5.799988q-0.299988,-2.200012 -1.299988,-5.200012q-1,-3 -1.700012,-3.5l-0.799988,-0.5l-0.200012,-1l-0.299988,-1l-0.299988,-0.200012l-0.200012,-0.299988l1,-0.5l1,-0.5l0.5,-0.299988l0.5,-0.200012l0,0.200012l0,0.299988l0.5,0.299988l0.5,0.200012l2.799988,1q2.700012,1 3,0q0.200012,-1 6,-1.5q5.700012,-0.5 7,-1.700012q1.200012,-1.299988 2.200012,-0.799988q1,0.5 2,0.799988zm-16.799988,19.200012l0.299988,-2l0.5,1l0.5,1l0.299988,1q0.200012,1 -0.799988,1q-1,0 -0.799988,-2z"/>
  <path id="svg_30" fill="#000000" fill-rule="evenodd" stroke="#000000" stroke-width="0.5px" d="m255,398.200012l1,-0.200012l0,2l0,2l6,1q6,1 6.5,2.200012q0.5,1.299988 5.5,1.799988q5,0.5 6,1.5q1,1 2.5,1q1.5,0 4,0l2.5,0l-0.200012,0.299988l-0.299988,0.200012l-0.299988,0.200012l-0.200012,0.299988l-0.200012,0.299988l-0.299988,0.200012l-0.299988,0.200012l-0.200012,0.299988l-0.200012,0.299988l-0.299988,0.200012l-2,9.5q-2,9.5 -1,13q1,3.5 0.5,5q-0.5,1.5 -0.799988,3.700012q-0.200012,2.299988 0.599976,3q0.700012,0.799988 -1.599976,6.599976q-2.200012,5.700012 -3.200012,5.700012q-1,0 -1.200012,0.299988l-0.299988,0.200012l-0.299988,0.200012l-0.200012,0.299988l0.200012,0.299988l0.299988,0.200012l0.299988,0.200012l0.200012,0.299988l-0.200012,0.299988l-0.299988,0.200012l-0.5,1.5q-0.5,1.5 -0.799988,2l-0.200012,0.5l-0.200012,0q-0.299988,0 -0.599976,0.5l-0.200012,0.5l-0.200012,0q-0.299988,0 -4.599976,1.5q-4.200012,1.5 -4.200012,-0.5q0,-2 -1,-2q-1,0 -2,2.5q-1,2.5 -6.200012,6q-5.299988,3.5 -9.999985,5.5q-4.800003,2 -3.600006,-1q1.300003,-3 4.300003,-12q3,-9 -2.300003,-3.799988q-5.199997,5.299988 -13.699997,10.299988l-8.5,5l-1,0.5l-1,0.5l-1.5,0.5l-1.5,0.5l-1.5,0.299988l-1.5,0.200012l0.199997,-1l0.300003,-1l0.5,-1l0.5,-1l0.5,-1l0.5,-1l0.300003,-0.200012l0.199997,-0.299988l0.199997,-0.299988l0.300003,-0.200012l0.5,-1q0.5,-1 4,-6.5l3.5,-5.5l0.300003,-0.200012l0.199997,-0.299988l0.199997,-0.299988l0.300003,-0.200012l0.300003,-0.200012l0.199997,-0.299988l0.199997,-0.299988l0.300003,-0.200012l0.300003,-0.200012l0.199997,-0.299988l0.199997,-0.299988l0.300003,-0.200012l0.300003,-0.200012l0.199997,-0.299988l0.199997,-0.299988l0.300003,-0.200012l0,-1l0,-1l-0.300003,0.200012l-0.199997,0.299988l-0.199997,0.299988l-0.300003,0.200012l-0.300003,0.200012l-0.199997,0.299988l-1,0.5l-1,0.5l-0.199997,0.299988l-0.300003,0.200012l-0.300003,0.200012l-0.199997,0.299988l-1.5,0.5l-1.5,0.5l-7.5,3.5q-7.5,3.5 -8.5,4l-1,0.5l-3,0.5l-3,0.5l-1,0.299988l-1,0.200012l0.199997,-1l0.300003,-1l0.300003,-0.200012l0.199997,-0.299988l0.199997,-0.299988l0.300003,-0.200012l0.5,-1l0.5,-1l0.300003,-0.200012l0.199997,-0.299988l0.199997,-0.299988l0.300003,-0.200012l0.300003,-0.200012l0.199997,-0.299988l0.199997,-0.299988l0.300003,-0.200012l0.300003,-0.200012l0.199997,-0.299988l0.199997,-0.299988q0.300003,-0.200012 7.600006,-7.400024l7.199997,-7.299988l0.199997,-0.299988l0.300003,-0.200012l0.300003,-0.200012l0.199997,-0.299988l0.199997,-0.299988l0.300003,-0.200012l0.300003,-0.200012l0.199997,-0.299988l0.199997,-0.299988l0.300003,-0.200012l0.300003,-0.200012l0.199997,-0.299988l0.199997,-0.299988l0.300003,-0.200012l0.300003,-0.200012l0.199997,-0.299988l1,-0.5l1,-0.5l0.199997,-0.299988l0.300003,-0.200012l0.300003,-0.200012l0.199997,-0.299988l-1.5,0l-1.5,0l-1,0.5l-1,0.5l-0.199997,0.299988l-0.300003,0.200012l-0.300003,0.200012l-0.199997,0.299988l-1,0.5l-1,0.5l-1,0.5q-1,0.5 -6,2.5q-5,2 -16,2.5l-11,0.5l0.199997,-0.299988l0.300003,-0.200012l0.300003,-0.200012l0.199997,-0.299988l1,-0.5l1,-0.5l1,-0.5l1,-0.5l0.199997,-0.299988l0.300003,-0.200012l0.300003,-0.200012l0.199997,-0.299988l1,-0.5q1,-0.5 11,-6.5l10,-6l1,-0.5l1,-0.5l1,-0.5l1,-0.5l1,-0.299988l1,-0.200012l0,-1l0,-1l-1,0.200012l-1,0.299988l-1.5,0.5l-1.5,0.5l-2,0.5q-2,0.5 -8.5,1l-6.5,0.5l-2,-0.5l-2,-0.5l-1,-0.5l-1,-0.5l-1,-0.5l-1,-0.5l-0.199997,-0.299988l-0.300003,-0.200012l-0.300003,-0.200012l-0.199997,-0.299988l2,-0.5l2,-0.5l3.5,-1q3.5,-1 5.5,-1.5l2,-0.5l2,-0.5l2,-0.5l1,-0.5l1,-0.5l0.199997,-0.299988l0.300003,-0.200012l0.300003,-0.200012l0.199997,-0.299988l-5,-0.5l-5,-0.5l-2,-0.299988l-2,-0.200012l0,-1l0,-1l2.5,-0.200012l2.5,-0.299988l17,-4.5q17,-4.5 27.5,-8.5q10.5,-4 11.5,-4.299988zm25.200012,54q0.299988,-0.200012 0.599976,0q0.200012,0.299988 -0.299988,0.299988q-0.5,0 -0.299988,-0.299988z"/>
 </g>
</svg>